<svg version="1.1" viewBox="0.000000 0.000000 96.000000 96.000000" xmlns="http://www.w3.org/2000/svg" xmlns:xlink="http://www.w3.org/1999/xlink" id="Icons_Checklist_LTR" overflow="hidden"><g><path d=" M 23.000000 14.000000 L 73.000000 14.000000 L 73.000000 82.000000 L 23.000000 82.000000 L 23.000000 14.000000 Z M 17.000000 88.000000 L 79.000000 88.000000 L 79.000000 8.000000 L 17.000000 8.000000 L 17.000000 88.000000 Z"/><rect x="50.000000" y="23.000000" width="17.000000" height="4.000000"/><rect x="50.000000" y="39.000000" width="17.000000" height="4.000000"/><rect x="50.000000" y="71.000000" width="17.000000" height="4.000000"/><rect x="50.000000" y="55.000000" width="17.000000" height="4.000000"/><path d=" M 43.799999 20.799999 L 41.000000 18.000000 L 34.400002 24.600000 L 31.799999 22.000000 L 29.000000 24.799999 L 34.400002 30.200001 Z"/><path d=" M 43.799999 36.799999 L 41.000000 34.000000 L 34.400002 40.599998 L 31.799999 38.000000 L 29.000000 40.799999 L 34.400002 46.200001 Z"/><path d=" M 43.799999 52.799999 L 41.000000 50.000000 L 34.400002 56.599998 L 31.799999 54.000000 L 29.000000 56.799999 L 34.400002 62.200001 Z"/><path d=" M 43.799999 68.599998 L 41.000000 65.800003 L 34.400002 72.400002 L 31.799999 69.800003 L 29.000000 72.599998 L 34.400002 78.000000 Z"/></g></svg>