<svg version="1.1" viewBox="0.000000 0.000000 96.000000 96.000000" xmlns="http://www.w3.org/2000/svg" xmlns:xlink="http://www.w3.org/1999/xlink" id="Icons_TargetAudience" overflow="hidden"><path d=" M 64.300003 69.099998 C 62.799999 67.599998 61.900002 65.500000 61.900002 63.400002 L 61.299999 62.799999 C 52.200001 68.400002 40.599998 67.800003 32.099998 61.299999 L 31.799999 61.500000 C 30.700001 62.299999 30.000000 63.599998 30.000000 65.000000 L 30.000000 74.000000 L 66.000000 74.000000 L 66.000000 70.800003 L 64.300003 69.099998 Z"/><path d=" M 73.500000 39.500000 C 78.400002 38.700001 81.699997 34.000000 80.900002 29.100000 C 80.099998 24.200001 75.400002 20.900000 70.500000 21.700001 C 69.099998 21.900000 67.800003 22.500000 66.699997 23.299999 C 70.800003 27.700001 73.199997 33.400002 73.500000 39.500000 Z"/><path d=" M 88.199997 47.400002 C 85.599998 45.400002 82.599998 43.900002 79.400002 43.200001 C 77.500000 42.599998 75.500000 42.299999 73.500000 42.099998 C 73.300003 46.400002 72.000000 50.599998 69.699997 54.299999 L 70.300003 54.900002 C 72.400002 54.900002 74.500000 55.799999 76.000000 57.299999 L 78.699997 60.000000 L 90.000000 60.000000 L 90.000000 51.000000 C 90.000000 49.599998 89.400002 48.200001 88.199997 47.400002 Z"/><path d=" M 83.400002 68.900002 L 74.000000 59.400002 C 72.699997 58.200001 71.000000 57.599998 69.199997 58.000000 L 65.800003 54.700001 C 68.900002 50.700001 70.500000 45.900002 70.500000 40.900002 C 70.599998 28.299999 60.400002 18.000000 47.700001 17.900000 C 35.000000 17.799999 24.900000 28.000000 24.900000 40.599998 C 24.900000 53.200001 35.000000 63.500000 47.700001 63.599998 C 52.700001 63.599998 57.599998 62.000000 61.700001 58.900002 L 65.099998 62.200001 C 64.800003 63.900002 65.300003 65.699997 66.500000 67.000000 L 76.000000 76.500000 C 78.000000 78.599998 81.400002 78.699997 83.500000 76.699997 C 85.599998 74.699997 85.699997 71.300003 83.699997 69.199997 C 83.599998 69.099998 83.500000 69.000000 83.400002 68.900002 L 83.400002 68.900002 Z M 47.799999 22.600000 C 57.900002 22.600000 66.000000 30.700001 66.000000 40.799999 C 66.000000 45.099998 64.500000 49.299999 61.700001 52.500000 C 59.799999 51.599998 57.900002 50.900002 55.900002 50.400002 C 53.200001 49.599998 50.400002 49.099998 47.599998 49.099998 C 44.799999 49.099998 42.000000 49.599998 39.299999 50.400002 C 37.400002 50.900002 35.599998 51.599998 33.900002 52.599998 C 27.400000 45.000000 28.299999 33.500000 35.900002 27.000000 C 39.200001 24.100000 43.400002 22.600000 47.799999 22.600000 Z"/><circle cx="47.600000" cy="36.800000" r="10.100000"/><path d=" M 22.000000 42.099998 C 20.200001 42.299999 18.400000 42.599998 16.600000 43.200001 C 13.500000 44.099998 10.500000 45.599998 7.800000 47.400002 C 6.600000 48.200001 6.000000 49.599998 6.000000 51.000000 L 6.000000 60.000000 L 27.600000 60.000000 C 28.000000 59.400002 28.500000 58.900002 29.100000 58.500000 C 24.799999 54.000000 22.299999 48.200001 22.000000 42.099998 Z"/><path d=" M 22.000000 39.400002 C 22.299999 33.299999 24.799999 27.600000 29.000000 23.100000 C 24.900000 20.299999 19.299999 21.400000 16.500000 25.600000 C 13.700000 29.799999 14.800000 35.299999 19.000000 38.099998 C 19.900000 38.700001 20.900000 39.099998 22.000000 39.400002 Z"/></svg>