<svg version="1.1" viewBox="0.000000 0.000000 96.000000 96.000000" xmlns="http://www.w3.org/2000/svg" xmlns:xlink="http://www.w3.org/1999/xlink" id="Icons_BusinessGrowth" overflow="hidden"><path d=" M 74.000000 51.950001 L 84.099998 41.849998 L 90.000000 47.750000 L 90.000000 31.750000 L 74.000000 31.750000 L 79.900002 37.650002 L 70.000000 47.549999 L 53.000000 64.550003 L 38.000000 49.549999 L 6.900000 80.650002 L 11.100000 84.849998 L 38.000000 57.950001 L 53.000000 72.949997 L 74.000000 51.950001 Z"/><circle cx="18.000000" cy="20.000000" r="5.000000"/><path d=" M 66.169998 45.709999 L 67.169998 44.709999 L 69.459999 42.419998 L 66.680000 29.920000 C 66.595001 29.477200 66.353600 29.079700 66.000000 28.799999 C 64.802299 27.860201 63.448200 27.139200 62.000000 26.670000 C 59.387501 25.777000 56.552502 25.777000 53.939999 26.670000 C 52.492199 27.140301 51.138302 27.861300 49.939999 28.799999 C 49.594002 29.086399 49.354500 29.480900 49.259998 29.920000 L 48.000000 35.779999 L 48.000000 35.779999 L 46.689999 29.920000 C 46.598301 29.477400 46.354099 29.080999 46.000000 28.799999 C 44.802299 27.860201 43.448200 27.139200 42.000000 26.670000 C 37.894402 25.344900 33.398800 26.142799 30.000000 28.799999 C 29.653999 29.086399 29.414499 29.480900 29.320000 29.920000 L 28.000000 35.590000 C 28.000000 35.590000 28.000000 35.590000 28.000000 35.590000 L 26.700001 29.920000 C 26.600201 29.478201 26.353399 29.083300 26.000000 28.799999 C 24.801701 27.861300 23.447800 27.140301 22.000000 26.670000 C 19.387501 25.777000 16.552500 25.777000 13.940000 26.670000 C 12.493100 27.142401 11.139600 27.863199 9.940000 28.799999 C 9.594000 29.086399 9.354480 29.480900 9.260000 29.920000 L 6.080000 44.439999 C 5.795110 45.558601 6.470930 46.696301 7.589500 46.981201 C 7.616210 46.987999 7.643040 46.994301 7.670000 47.000000 C 7.779780 47.009899 7.890220 47.009899 8.000000 47.000000 C 8.956340 47.022301 9.794590 46.364300 10.000000 45.430000 L 13.000000 32.000000 L 13.000000 32.000000 L 13.000000 39.099998 L 10.000000 54.000000 L 13.000000 54.000000 L 13.000000 68.889999 L 17.000000 64.889999 L 17.000000 54.000000 L 19.000000 54.000000 L 19.000000 62.889999 L 23.000000 58.889999 L 23.000000 54.000000 L 26.000000 54.000000 L 23.000000 39.110001 L 23.000000 32.110001 L 23.000000 32.110001 L 26.000000 45.169998 C 26.088499 46.207699 26.958599 47.003799 28.000000 47.000000 L 28.000000 47.000000 C 28.933901 46.993801 29.739201 46.342098 29.940001 45.430000 L 30.000000 45.000000 L 32.919998 32.169998 C 32.919998 32.169998 32.919998 32.169998 32.919998 32.169998 L 32.919998 48.939999 L 35.130001 46.720001 C 36.691200 45.157001 39.223900 45.155602 40.786900 46.716900 C 40.787899 46.717899 40.789001 46.719002 40.790001 46.720001 L 43.000000 48.849998 L 43.000000 32.180000 C 43.000000 32.180000 43.000000 32.180000 43.000000 32.180000 L 46.000000 45.439999 C 46.209499 46.370300 47.046700 47.023300 48.000000 47.000000 L 48.000000 47.000000 C 48.937698 46.998501 49.748402 46.345699 49.950001 45.430000 L 52.950001 32.169998 C 52.950001 32.169998 52.950001 32.169998 52.950001 32.169998 L 52.950001 58.869999 L 52.950001 58.869999 L 56.950001 54.869999 L 56.950001 48.000000 L 58.950001 48.000000 L 58.950001 52.910000 L 62.950001 48.910000 L 62.950001 32.180000 C 62.950001 32.180000 62.950001 32.180000 62.950001 32.180000 L 66.099998 45.720001 Z"/><circle cx="57.990000" cy="20.000000" r="5.000000"/><circle cx="37.960000" cy="20.000000" r="5.000000"/></svg>