<svg version="1.1" viewBox="0.000000 0.000000 96.000000 96.000000" xmlns="http://www.w3.org/2000/svg" xmlns:xlink="http://www.w3.org/1999/xlink" id="Icons_Bank" overflow="hidden"><path d=" M 79.000000 75.000000 L 79.000000 73.000000 L 75.000000 73.000000 L 75.000000 39.000000 L 79.000000 39.000000 L 79.000000 37.000000 L 82.000000 37.000000 L 82.000000 31.000000 L 79.000000 31.000000 L 48.000000 12.000000 L 17.000000 31.000000 L 14.000000 31.000000 L 14.000000 37.000000 L 17.000000 37.000000 L 17.000000 39.000000 L 21.000000 39.000000 L 21.000000 73.000000 L 17.000000 73.000000 L 17.000000 75.000000 L 10.000000 80.000000 L 10.000000 84.000000 L 48.000000 84.000000 L 86.000000 84.000000 L 86.000000 80.000000 L 79.000000 75.000000 Z M 33.000000 73.000000 L 27.000000 73.000000 L 27.000000 39.000000 L 33.000000 39.000000 L 33.000000 73.000000 Z M 45.000000 73.000000 L 39.000000 73.000000 L 39.000000 39.000000 L 45.000000 39.000000 L 45.000000 73.000000 Z M 47.000000 29.000000 C 44.799999 29.000000 43.000000 27.200001 43.000000 25.000000 C 43.000000 22.799999 44.799999 21.000000 47.000000 21.000000 C 49.200001 21.000000 51.000000 22.799999 51.000000 25.000000 C 51.000000 27.200001 49.200001 29.000000 47.000000 29.000000 Z M 57.000000 73.000000 L 51.000000 73.000000 L 51.000000 39.000000 L 57.000000 39.000000 L 57.000000 73.000000 Z M 69.000000 73.000000 L 63.000000 73.000000 L 63.000000 39.000000 L 69.000000 39.000000 L 69.000000 73.000000 Z"/></svg>