<svg version="1.1" viewBox="0.000000 0.000000 96.000000 96.000000" xmlns="http://www.w3.org/2000/svg" xmlns:xlink="http://www.w3.org/1999/xlink" id="Icons_Handshake" overflow="hidden"><path d=" M 44.900002 72.400002 C 44.400002 72.400002 43.799999 72.300003 43.400002 71.900002 C 42.599998 71.199997 42.500000 69.900002 43.200001 69.099998 L 47.099998 64.599998 C 47.799999 63.799999 49.099998 63.700001 49.900002 64.400002 C 50.700001 65.099998 50.799999 66.400002 50.099998 67.199997 L 46.200001 71.699997 C 45.900002 72.099998 45.400002 72.300003 44.900002 72.400002 Z"/><path d=" M 38.799999 70.099998 C 38.099998 70.199997 37.500000 70.000000 36.900002 69.500000 C 35.900002 68.599998 35.799999 67.000000 36.700001 66.000000 L 41.299999 60.700001 C 42.200001 59.700001 43.799999 59.599998 44.799999 60.500000 C 45.799999 61.400002 45.900002 63.000000 45.000000 64.000000 L 40.400002 69.300003 C 40.000000 69.800003 39.400002 70.099998 38.799999 70.099998 Z"/><path d=" M 32.500000 66.400002 C 31.700001 66.500000 30.900000 66.199997 30.299999 65.699997 C 29.100000 64.599998 28.900000 62.700001 30.000000 61.500000 L 34.599998 56.200001 C 35.700001 55.000000 37.599998 54.799999 38.799999 55.900002 C 40.000000 57.000000 40.200001 58.900002 39.099998 60.099998 L 34.500000 65.400002 C 34.000000 66.000000 33.200001 66.400002 32.500000 66.400002 Z"/><path d=" M 25.200001 62.700001 C 24.400000 62.799999 23.600000 62.500000 23.000000 62.000000 C 21.799999 60.900002 21.600000 59.000000 22.700001 57.799999 L 28.000000 51.799999 C 29.100000 50.599998 31.000000 50.400002 32.200001 51.500000 C 33.400002 52.599998 33.599998 54.500000 32.500000 55.700001 L 27.200001 61.700001 C 26.600000 62.299999 25.900000 62.599998 25.200001 62.700001 Z"/><path d=" M 4.600000 40.700001 L 12.300000 45.400002 C 13.200000 46.000000 14.500000 45.700001 15.000000 44.700001 L 24.299999 29.299999 C 24.900000 28.400000 24.600000 27.100000 23.600000 26.600000 L 16.000000 21.900000 L 4.600000 40.700001 Z"/><path d=" M 69.400002 53.799999 L 53.299999 40.000000 L 52.200001 39.000000 L 45.299999 46.900002 C 44.299999 48.099998 42.900002 48.799999 41.299999 48.900002 C 41.099998 48.900002 40.900002 48.900002 40.799999 48.900002 C 39.299999 48.900002 37.900002 48.400002 36.900002 47.400002 C 34.400002 45.200001 34.200001 41.400002 36.299999 38.900002 L 42.200001 32.099998 C 37.599998 31.500000 31.700001 33.900002 25.600000 30.900000 L 16.900000 45.299999 L 23.700001 53.200001 L 26.299999 50.200001 C 27.200001 49.099998 28.600000 48.500000 30.100000 48.500000 L 30.100000 48.500000 C 31.299999 48.500000 32.500000 48.900002 33.400002 49.700001 C 34.500000 50.599998 35.000000 51.900002 35.099998 53.299999 C 35.599998 53.099998 36.200001 53.000000 36.799999 53.000000 C 38.000000 53.000000 39.200001 53.400002 40.099998 54.200001 C 41.200001 55.200001 41.799999 56.500000 41.799999 57.900002 C 42.200001 57.799999 42.700001 57.700001 43.099998 57.700001 L 43.099998 57.700001 C 44.200001 57.700001 45.200001 58.099998 46.099998 58.799999 C 47.000000 59.599998 47.500000 60.700001 47.599998 61.900002 C 47.900002 61.799999 48.299999 61.700001 48.700001 61.700001 L 48.700001 61.700001 C 49.700001 61.700001 50.599998 62.000000 51.299999 62.700001 C 52.099998 63.400002 52.599998 64.400002 52.700001 65.400002 C 52.799999 66.500000 52.400002 67.500000 51.700001 68.300003 L 48.299999 72.199997 L 49.700001 73.300003 C 50.400002 73.699997 51.200001 74.000000 52.099998 73.900002 C 54.299999 73.699997 55.900002 71.800003 55.700001 69.599998 C 55.700001 69.599998 55.700001 69.500000 55.700001 69.500000 C 56.000000 69.599998 56.400002 69.599998 56.700001 69.599998 C 58.900002 69.400002 60.500000 67.500000 60.299999 65.300003 C 60.299999 65.300003 60.299999 65.199997 60.299999 65.199997 C 60.599998 65.300003 61.000000 65.300003 61.299999 65.300003 C 63.500000 65.099998 65.099998 63.200001 64.900002 61.000000 C 64.900002 60.799999 64.800003 60.599998 64.800003 60.400002 C 65.400002 60.700001 66.099998 60.900002 66.900002 60.799999 C 69.099998 60.599998 70.699997 58.700001 70.500000 56.500000 C 70.599998 55.400002 70.099998 54.500000 69.400002 53.799999 Z"/><path d=" M 91.400002 40.700001 L 83.699997 45.400002 C 82.800003 46.000000 81.500000 45.700001 81.000000 44.700001 L 71.699997 29.299999 C 71.099998 28.400000 71.400002 27.100000 72.400002 26.600000 L 80.099998 21.900000 L 91.400002 40.700001 Z"/><path d=" M 70.500000 31.299999 C 62.200001 34.299999 56.200001 31.400000 49.500000 30.100000 C 49.400002 30.100000 49.000000 30.000000 49.000000 30.000000 C 47.799999 29.900000 46.500000 30.299999 45.599998 31.299999 L 37.700001 40.299999 C 36.200001 42.000000 36.400002 44.500000 38.099998 45.900002 C 39.000000 46.599998 40.000000 47.000000 41.099998 46.900002 C 42.099998 46.799999 43.099998 46.400002 43.799999 45.500000 C 43.799999 45.500000 52.000000 36.099998 52.000000 36.099998 L 70.699997 52.200001 L 70.699997 52.200001 L 70.699997 52.200001 C 71.199997 52.700001 71.400002 52.900002 71.800003 53.500000 L 79.000000 45.200001 L 70.500000 31.299999 Z"/></svg>